<?xml version="1.0" encoding="UTF-8"?>
<svg id="Calque_2" data-name="Calque 2" xmlns="http://www.w3.org/2000/svg" viewBox="0 0 80.1 64.82">
  <defs>
    <style>
      .cls-1 {
        fill: #fff;
        stroke-width: 0px;
      }
    </style>
  </defs>
  <g id="Calque_1-2" data-name="Calque 1">
    <g>
      <path class="cls-1" d="m3.65,30.62C4.5,14.15,17.11.45,32.42.45h26.16c7.86,0,10.85,1.82,13.75,11.69l.36-.19-2.55-11.95h-37.73C15.11,0,.93,13.82,0,30.64h3.64v-.02h0Z"/>
      <path class="cls-1" d="m58.57,64.35h-26.16c-15.31,0-27.92-13.7-28.77-30.17H0c.94,16.84,15.1,30.64,32.41,30.64h37.73l2.55-11.95-.36-.19c-2.92,9.86-5.89,11.69-13.75,11.69h0v-.02h-.01Z"/>
    </g>
    <path class="cls-1" d="m80.1,32.2c-6.38.2-19.62.59-23.57,1.06-2.84.35-5.14.84-7,1.6-7.33,3.01-7.83,10.12-8.38,28.26-.57-18.75-1.07-25.72-9.15-28.55-2.21-.77-5-1.24-8.5-1.55-3.51-.31-18.29-.46-23.5-.63,5.19-.17,19.89-.32,23.43-.62s6.36-.77,8.58-1.56c8.06-2.83,8.57-9.81,9.13-28.55.56,18.2,1.05,25.3,8.45,28.29,1.87.76,4.19,1.25,7.05,1.59,3.94.46,17.14.45,23.45.64h0v.02h0Z"/>
  </g>
</svg>