<?xml version="1.0" encoding="UTF-8"?>
<svg id="Calque_2" data-name="Calque 2" xmlns="http://www.w3.org/2000/svg" viewBox="0 0 262.85 41.31">
  <defs>
    <style>
      .cls-1 {
        fill: #fff;
        stroke-width: 0px;
      }
    </style>
  </defs>
  <g id="Calque_1-2" data-name="Calque 1">
    <g>
      <path class="cls-1" d="m73.93,14.49c0-1.24.15-2.11.46-2.61s.8-.75,1.48-.75c.34,0,.69.05,1.04.16s.69.29.99.57l3.41-6.46c-.85-.55-1.94-1.04-3.28-1.47-1.34-.43-2.65-.65-3.94-.65-3.15,0-5.49.84-7.02,2.53-1.53,1.69-2.29,3.96-2.29,6.82v2.22h-3.81v7.23h3.81v18.59h9.16v-18.59h5.24v-7.23h-5.24v-.36Z"/>
      <path class="cls-1" d="m193.58,15.5c-1.36-.84-3.07-1.27-5.14-1.27-1.36,0-2.61.29-3.76.88-1.15.59-2.15,1.46-3,2.63V4.52h-9.16v16.02c-.95-1.75-2.26-3.15-3.92-4.2-2.24-1.41-4.7-2.12-7.38-2.12s-5.24.58-7.38,1.73c-2.14,1.15-3.81,2.75-5.04,4.78-.5.84-.9,1.73-1.19,2.67-.15-1.56-.43-2.92-.87-4.07-.66-1.72-1.67-3-3.03-3.85-1.36-.84-3.07-1.27-5.14-1.27-1.42,0-2.73.33-3.92.98-1.19.65-2.19,1.58-3,2.79l-.36-3.15h-8.65v8.06c-.2-.6-.43-1.17-.69-1.71-1.14-2.34-2.7-4.09-4.68-5.24-1.98-1.15-4.28-1.73-6.89-1.73-2.75,0-5.17.57-7.27,1.71-1.96,1.06-3.51,2.53-4.68,4.37v-5.56c-1.7,0-3.35.42-4.96,1.27-1.61.84-2.96,2.07-4.04,3.69v-4.85h-9.16v25.82h9.16v-12.96c0-.83.42-1.53,1.25-2.12.83-.58,1.93-1.02,3.31-1.32.91-.19,1.88-.3,2.88-.36-.31,1.2-.47,2.48-.47,3.85,0,2.69.6,5.04,1.81,7.08,1.2,2.03,2.87,3.62,5.01,4.75,2.14,1.14,4.58,1.71,7.32,1.71,1.59,0,3.21-.23,4.86-.7,1.64-.46,3.14-1.24,4.48-2.32,1.24-1.01,2.16-2.33,2.77-3.94v6.34h9.16v-13.74c0-1.41.32-2.44.97-3.1.64-.65,1.61-.95,2.9-.88.64.04,1.18.22,1.6.57.42.34.75.83.97,1.47.22.64.33,1.46.33,2.45v13.22h9.16v-8.21c.28.8.63,1.57,1.07,2.3,1.22,2.05,2.92,3.65,5.09,4.8,2.17,1.15,4.65,1.73,7.43,1.73s5.13-.71,7.35-2.14c1.62-1.04,2.9-2.42,3.84-4.13v5.66h9.16v-13.74c0-1.41.32-2.44.97-3.1.64-.65,1.61-.95,2.9-.88.64.04,1.18.22,1.6.57.42.34.75.83.97,1.47.22.64.33,1.46.33,2.45v13.22h9.15v-14.77c0-2.65-.33-4.84-.99-6.56s-1.67-3-3.03-3.85Zm-86.72,6.64c.44-.55.95-.94,1.53-1.16.58-.22,1.17-.34,1.78-.34s1.2.11,1.78.34c.58.22,1.08.61,1.53,1.16.44.55.75,1.31.92,2.27h-8.44c.17-.96.47-1.72.92-2.27Zm7.93,9.3c-.2.79-.72,1.46-1.55,1.99-.83.54-1.81.8-2.92.8-1.25,0-2.26-.37-3.03-1.11-.76-.74-1.23-1.75-1.4-3.02h16.78v3.83l-7.88-2.48Zm49.9-1.29c-.31.69-.81,1.26-1.53,1.7-.71.45-1.49.67-2.34.67s-1.61-.21-2.29-.62c-.68-.41-1.2-.97-1.58-1.68-.37-.71-.56-1.52-.56-2.45s.19-1.76.56-2.48c.37-.72.88-1.28,1.53-1.68.64-.4,1.39-.59,2.24-.59s1.69.22,2.42.67c.73.45,1.23,1.02,1.5,1.71l7.88-2.61v9.9l-7.83-2.54Z"/>
      <path class="cls-1" d="m203.2,2.04c-1.36,0-2.54.51-3.56,1.52-1.02,1.02-1.53,2.23-1.53,3.64s.51,2.58,1.53,3.62c1.02,1.03,2.2,1.55,3.56,1.55s2.59-.52,3.59-1.55c1-1.03,1.5-2.24,1.5-3.62s-.5-2.62-1.5-3.64c-1-1.01-2.2-1.52-3.59-1.52Z"/>
      <rect class="cls-1" x="198.62" y="14.85" width="9.16" height="25.82"/>
      <polygon class="cls-1" points="40.68 0 0 40.68 19.96 40.68 42.53 1.85 40.68 0"/>
      <polygon class="cls-1" points="43.82 7.35 26.74 36.74 39.22 36.74 45.94 9.47 43.82 7.35"/>
      <polygon class="cls-1" points="43.78 33.02 51.56 33.02 51.56 17.81 48.32 14.58 43.78 33.02"/>
      <path class="cls-1" d="m259.55,37.52c.02-.11.03-.21.03-.31,0-.67-.53-.99-1.34-.99-.95,0-1.46.51-1.57,1.1h.88c.04-.3.31-.42.61-.42s.5.11.5.35c0,.03,0,.1-.02.16l-.02.06c-1.34.13-2.25.38-2.25,1.21,0,.51.42.83.95.83.44,0,.75-.13,1.03-.45l-.07.38h.94c0-.27.11-.83.19-1.23l.14-.68Zm-1.03.6c-.12.58-.39.74-.73.74-.26,0-.4-.13-.4-.3,0-.29.18-.42,1.15-.52l-.02.08Z"/>
      <polygon class="cls-1" points="259.4 39.43 260.34 39.43 261 36.31 260.05 36.31 259.4 39.43"/>
      <path class="cls-1" d="m258.98,33.57c-1.16,0-2.19.52-2.9,1.34.11-.51.19-1.05.19-1.62,0-1.48-.32-2.79-.97-3.92-.64-1.14-1.54-2.09-2.7-2.87-1.15-.78-2.51-1.35-4.07-1.73l-2.09-.52c-1.02-.28-1.77-.56-2.26-.85-.49-.29-.74-.65-.74-1.06,0-.38.16-.71.48-.98.32-.28.77-.41,1.35-.41.81,0,1.5.16,2.06.46.56.31.96.81,1.2,1.5l7.07-2.74c-.48-1.17-1.15-2.2-2.03-3.1-.88-.89-2.01-1.59-3.38-2.09-1.37-.5-3.06-.75-5.06-.75-3.29,0-5.89.72-7.81,2.17-1.76,1.33-2.7,3.17-2.84,5.51-.1-.24-.2-.48-.31-.7-1.14-2.34-2.7-4.09-4.68-5.24-1.98-1.15-4.28-1.73-6.89-1.73-2.75,0-5.17.57-7.27,1.71-2.1,1.14-3.75,2.72-4.93,4.75-1.19,2.03-1.78,4.39-1.78,7.08s.6,5.04,1.81,7.08c1.2,2.03,2.87,3.62,5.01,4.75,2.14,1.14,4.58,1.71,7.32,1.71,1.59,0,3.21-.23,4.86-.7,1.64-.46,3.14-1.24,4.48-2.32.8-.65,1.45-1.44,1.99-2.33.43.99,1.06,1.86,1.92,2.59,1.03.88,2.28,1.56,3.74,2.04,1.46.48,3.03.72,4.73.72,2.37,0,4.44-.32,6.21-.96,1.76-.64,3.14-1.55,4.12-2.74.13-.16.24-.34.35-.51-.01.12-.04.23-.04.35,0,2.14,1.74,3.87,3.87,3.87s3.87-1.74,3.87-3.87-1.74-3.87-3.87-3.87Zm-39.94-11.44c.44-.55.95-.94,1.53-1.16.58-.22,1.17-.34,1.78-.34s1.2.11,1.78.34c.58.22,1.08.61,1.53,1.16.44.55.75,1.31.92,2.27h-8.44c.17-.96.47-1.72.92-2.27Zm26.75,12.14c-.34.24-.78.36-1.32.36-.51,0-1.1-.13-1.78-.39-.68-.26-1.2-.85-1.58-1.78l-6.56,2.61c.17-.36.33-.72.46-1.11l-8.04-2.53c-.2.79-.72,1.46-1.55,1.99-.83.54-1.81.8-2.92.8-1.25,0-2.26-.37-3.03-1.11-.76-.74-1.23-1.75-1.4-3.02h17.8c0-1.13-.06-2.19-.18-3.2.15.24.3.49.48.72,1.15,1.45,2.86,2.46,5.14,3.05l2.08.52c.98.24,1.71.53,2.19.85.47.33.71.73.71,1.21,0,.45-.17.79-.51,1.03Zm13.19,6.23c-1.69,0-3.06-1.37-3.06-3.06s1.37-3.06,3.06-3.06c.81,0,1.54.32,2.09.83h-.79l-.16.77h.95l.13-.64c.52.55.84,1.28.84,2.09,0,1.69-1.37,3.06-3.06,3.06Z"/>
    </g>
  </g>
</svg>