<?xml version="1.0" encoding="UTF-8"?>
<svg id="Calque_2" data-name="Calque 2" xmlns="http://www.w3.org/2000/svg" viewBox="0 0 297.12 131.14">
  <defs>
    <style>
      .cls-1 {
        letter-spacing: .03em;
      }

      .cls-2 {
        letter-spacing: 0em;
      }

      .cls-3 {
        fill: #fff;
        stroke-width: 0px;
      }

      .cls-4 {
        fill: #f1f2f5;
        font-family: Basetica-Med, Basetica;
        font-size: 27.78px;
      }
    </style>
  </defs>
  <g id="Calque_1-2" data-name="Calque 1">
    <text class="cls-4" transform="translate(196.4 126.11)"><tspan class="cls-2" x="0" y="0">S</tspan><tspan x="15.42" y="0">TU</tspan><tspan class="cls-1" x="50.21" y="0">DIO</tspan></text>
    <g>
      <path class="cls-3" d="m190.8,32.46c0-16.53-13.45-29.98-29.98-29.98h-61.67v87.79h26.13v-27.82h13.14l27.82,27.82h23.59s.04-13.32.04-13.32l-17.02-17.02c10.87-4.73,17.96-15.39,17.96-27.47Zm-29.98,3.86h-35.55v-7.71h35.55c2.13,0,3.86,1.73,3.86,3.86s-1.73,3.86-3.86,3.86Z"/>
      <path class="cls-3" d="m291.76,88.85c0-1.19-.8-2.02-2.23-2.02h-2.5v6.87h1.2v-2.83h1l1.38,2.83h1.39l-1.56-3.05c.95-.38,1.32-.97,1.32-1.79Zm-2.33.91h-1.2v-1.82h1.26c.63,0,.99.36.99.92s-.36.91-1.05.91Z"/>
      <path class="cls-3" d="m289.32,84.16c-3.36,0-6.1,2.74-6.1,6.1s2.74,6.1,6.1,6.1,6.1-2.74,6.1-6.1-2.74-6.1-6.1-6.1Zm0,10.77c-2.57,0-4.67-2.09-4.67-4.67s2.09-4.67,4.67-4.67,4.67,2.09,4.67,4.67-2.09,4.67-4.67,4.67Z"/>
      <path class="cls-3" d="m46.37,0C20.8,0,0,20.8,0,46.37s20.8,46.37,46.37,46.37,46.37-20.8,46.37-46.37S71.94,0,46.37,0Zm0,65.55c-10.57,0-19.18-8.6-19.18-19.18s8.6-19.18,19.18-19.18,19.18,8.6,19.18,19.18-8.6,19.18-19.18,19.18Z"/>
      <path class="cls-3" d="m241.3,0c-25.57,0-46.37,20.8-46.37,46.37s20.8,46.37,46.37,46.37,46.37-20.8,46.37-46.37S266.87,0,241.3,0Zm0,65.55c-10.57,0-19.18-8.6-19.18-19.18s8.6-19.18,19.18-19.18,19.18,8.6,19.18,19.18-8.6,19.18-19.18,19.18Z"/>
    </g>
  </g>
</svg>