<?xml version="1.0" encoding="utf-8"?>
<!-- Generator: Adobe Illustrator 28.0.0, SVG Export Plug-In . SVG Version: 6.00 Build 0)  -->
<svg version="1.1" id="Calque_2_00000042695384261870038210000002555846168359492740_"
	 xmlns="http://www.w3.org/2000/svg" xmlns:xlink="http://www.w3.org/1999/xlink" x="0px" y="0px" viewBox="0 0 340.3 171.4"
	 style="enable-background:new 0 0 340.3 171.4;" xml:space="preserve">
<style type="text/css">
	.st0{fill:#FFFFFF;}
</style>
<g id="Calque_1-2">
	<g>
		<path class="st0" d="M118,158.5v11.8c-22.4-0.2-42-7.4-58.5-22.6C43,132.5,34.1,113.5,32.2,91.2h-9.4v6.4
			C15.1,93.2,7.7,88.9,0,84.5c7.6-4.3,15.1-8.5,22.7-12.8v5.8h9.5c3.4-29.5,17.8-52,43.6-67C91,1.8,108.5-0.7,118,0.2
			c0,2.1,0,4.1,0,6.2c0,1.3-0.1,2.6,0,4c0.1,0.9-0.2,1.2-1.2,1.3c-5.2,0.1-10.3,0.7-15.3,1.8c-29,5.9-51.7,30.7-56.3,57.9
			c-0.4,2.1-0.7,4.2-1,6.4c0.6,0,1.1,0,1.5,0c26.7,0,53.4,0,80.2,0c5.4,0,10.8-0.4,15.7-2.7c13.1-6,20.3-16.3,20.7-30.7
			c0.4-14.2,0.1-28.5,0.1-42.7c0-0.5,0-1,0-1.6H174c0,0.4,0.1,0.8,0.1,1.2c0,13,0,26.1,0,39.1c0,6.8-0.6,13.6-3,20
			c-3.7,9.9-10.5,17.2-19.4,22.6c-0.3,0.2-0.7,0.4-1,0.6c-0.3,0.2-0.7,0.4-1.2,0.7c0.4,0.2,0.6,0.4,0.9,0.6
			c12.8,7.2,20.5,18.2,23.1,32.6c0.6,3.6,0.4,7.4,0.5,11.1c0.1,2.3,0,4.5,0,6.9c-0.5,0-0.8,0.1-1.1,0.1c-3.1,0-6.2,0-9.4,0
			c-0.8,0-1.1-0.2-1.1-1.1c0-2.8-0.1-5.6,0-8.4c0.2-8.2-2.1-15.6-7.3-22.1c-6.7-8.4-15.6-12.8-26.4-13c-5.5-0.1-11-0.1-16.4-0.1
			c-22.2,0-44.4,0-66.6,0c-0.4,0-0.9,0-1.5,0c1.8,19.2,9.6,35.3,23.8,48.2C82,152.3,98.8,158.4,118,158.5L118,158.5z"/>
		<path class="st0" d="M185.9,0h11.7v77.6h34V0h11.8v77.6h9.8V73c4.5-0.1,8.1,1.3,10.7,4.8c3,4.1,3.4,8.4,1.1,13
			c-2.4,4.6-6.4,6.5-11.6,6.6v-6.1h-9.8v44.3h-11.8V91.2h-33.9v44.5h-11.7L185.9,0L185.9,0z"/>
		<path class="st0" d="M254.3,158.8c22.4-0.6,41.4-8.4,56.2-25.6c11.9-13.8,18.1-29.8,18-48.1c-0.1-20.3-7.4-37.8-21.7-52
			c-14.4-14.3-32-21.2-52.3-21.3V0c1.3,0,2.6-0.1,3.8,0c46.7,2.1,73.9,36.4,80,66.5c6.5,31.8-2.2,59.2-25.8,81.5
			c-15.5,14.7-34.5,21.8-56,22.3c-0.5,0-1,0.1-1.4,0c-0.3-0.1-0.8-0.5-0.8-0.7c-0.1-3.3,0-6.6,0-9.8
			C254.2,159.5,254.2,159.2,254.3,158.8L254.3,158.8z"/>
		<path class="st0" d="M210.6,141.5c3,0,5.7,0,8.5,0.1c0.3,0,0.8,0.6,0.8,1c0.9,4.6,1.8,9.2,2.7,13.8c0,0.2,0.1,0.4,0.2,0.9
			c0.2-0.5,0.3-0.7,0.3-0.9c0.9-4.5,1.8-8.9,2.7-13.4c0.2-1,0.6-1.5,1.7-1.4c1.8,0.1,3.7,0.1,5.5,0c1,0,1.4,0.2,1.6,1.3
			c0.8,4.4,1.7,8.8,2.6,13.2c0.1,0.4,0.2,0.8,0.5,1.1c0.6-3.4,1.3-6.7,1.9-10.1c0.3-1.6,0.6-3.1,0.9-4.7c0.1-0.3,0.5-0.8,0.8-0.8
			c2.8-0.1,5.5,0,8.4,0c-0.1,0.4-0.1,0.8-0.2,1.1c-2.5,9-5,18-7.4,27c-0.2,0.9-0.6,1.1-1.5,1.1c-2.2-0.1-4.3-0.1-6.5,0
			c-0.8,0-1.1-0.3-1.2-1.1c-0.8-4.1-1.6-8.1-2.4-12.2c-0.1-0.4-0.2-0.8-0.5-1.2c-0.4,1.9-0.8,3.8-1.2,5.8c-0.5,2.6-1,5.1-1.5,7.6
			c-0.1,0.8-0.4,1.1-1.2,1.1c-2.2-0.1-4.4-0.1-6.6,0c-0.9,0-1.2-0.3-1.5-1.1c-1.8-6.6-3.6-13.3-5.3-19.9
			C212.1,147.1,211.4,144.4,210.6,141.5L210.6,141.5z M231.1,150.1c0.1,0.4,0.2,0.9,0.3,1.3c1.1,5.4,2.2,10.9,3.2,16.4
			c0.2,0.9,0.6,1.2,1.4,1.1c1-0.1,2.1-0.1,3.1,0c1,0.1,1.4-0.2,1.6-1.2c2.1-7.7,4.2-15.4,6.3-23.1c0.1-0.3,0.1-0.7,0.2-1.1h-4.9
			c-0.1,0.4-0.2,0.6-0.3,1c-1.1,5.9-2.3,11.8-3.4,17.6c-0.2,1.3-0.8,1.5-1.9,1.2c-1.3-6.6-2.7-13.2-4-19.8c-1.4,0-2.7,0.1-3.9,0
			c-0.9-0.1-1.2,0.2-1.4,1.1c-1.1,5.9-2.4,11.8-3.6,17.7c-0.1,0.6-0.1,1.1-1,1.1c-0.9,0-0.9-0.5-1.1-1.1c-0.8-4.2-1.6-8.4-2.4-12.6
			c-0.4-2.1-0.8-4.1-1.2-6.2h-5.1c2.2,8.3,4.4,16.5,6.7,24.6c0.1,0.3,0.6,0.6,1,0.7c1.3,0.1,2.6,0,3.8,0.1c0.8,0,1.1-0.3,1.2-1.1
			c1.1-5.5,2.2-11,3.3-16.6C229.4,150.1,229.9,149.8,231.1,150.1L231.1,150.1z"/>
		<path class="st0" d="M209.1,149.2h-14.4c-0.1,0.2-0.2,0.2-0.2,0.3c-0.2,1.7,0.6,2.5,2.3,2.5c3.3,0,6.6,0,9.8,0
			c1,0,1.2,0.3,1.2,1.2c-0.1,2,0,4.1,0,6.2h-13.3v3.2h14.9v8c-0.4,0-0.7,0.1-1.1,0.1c-7.2,0-14.4,0-21.6,0c-0.9,0-1.3-0.1-1.3-1.2
			c0-9,0-18,0-27c0-0.3,0.1-0.6,0.1-1c0.4,0,0.7-0.1,1.1-0.1c7.1,0,14.2,0,21.2,0c1,0,1.3,0.3,1.3,1.3
			C209.1,144.9,209.1,146.9,209.1,149.2L209.1,149.2z M207.2,147.2c0-0.9-0.1-1.8,0-2.5c0.1-1-0.2-1.3-1.2-1.3
			c-5.8,0.1-11.6,0.1-17.4,0c-1,0-1.2,0.4-1.2,1.3c0,7.6,0,15.2,0,22.8c0,1.1,0.4,1.4,1.4,1.4c3.8-0.1,7.5,0,11.3,0
			c2.2,0,4.4,0,6.6,0c0.3,0,0.9-0.4,0.9-0.6c0.1-1.2,0-2.4,0-3.7h-14.9v-7.1h13.3c0-0.8-0.1-1.6,0-2.2c0.1-1.1-0.3-1.4-1.3-1.3
			c-3.6,0.1-7.3,0-10.9,0c-0.4,0-1.1-0.3-1.1-0.5c-0.1-2-0.1-4.1-0.1-6.2H207.2z"/>
		<path class="st0" d="M153.2,153.1h-8.9c-0.8-3.1-1.9-4.1-4.6-4.1c-2.5-0.1-4.3,1.3-5.1,3.9c-0.7,2.5-0.7,5,0.4,7.4
			c1.2,2.6,3.9,3.7,6.6,2.6c1.2-0.5,1.9-1.4,2.3-2.6c0.2-0.6,0.2-1.2,0.4-2h8.9c0,3.2-0.8,6.2-3,8.7c-4.9,5.5-14.4,5.8-20.1,0.8
			c-6.9-6.1-6.4-18.5,0.9-24.1c5.9-4.5,15.3-3.5,19.9,2.1C152.6,148,153.3,150.4,153.2,153.1L153.2,153.1z M151.2,160.2
			c-1.7,0-3.2,0-4.8,0c-0.2,0-0.5,0.4-0.6,0.7c-0.8,2.6-2.7,4-5.4,4.3c-2.6,0.2-4.8-0.6-6.4-2.8c-2.3-3.3-2.3-9.1,0-12.5
			c2.9-4.3,10.3-3.4,11.7,0.8c0.1,0.2,0.4,0.6,0.6,0.6c1.6,0.1,3.2,0,4.9,0c-0.3-2.2-1.3-3.9-2.8-5.2c-4.3-4-11.8-4.3-16.4-0.6
			c-3.8,3-5.1,7.1-4.8,11.7c0.7,11.2,11.1,14.5,18.5,11C148.9,166.6,150.6,163.9,151.2,160.2L151.2,160.2z"/>
		<path class="st0" d="M165.1,160.8c0,3-0.1,5.8,0,8.5c0,1.2-0.3,1.5-1.5,1.4c-2.5-0.1-4.9,0-7.5,0v-29.1c0.4,0,0.7-0.1,1-0.1
			c4.6,0,9.3-0.1,13.9,0.1c1.8,0.1,3.8,0.4,5.5,1.1c5.4,2.2,6.7,9.3,2.6,13.5c-0.2,0.2-0.6,0.4-0.9,0.7c2.4,2.2,2.8,4.9,3,7.8
			c0.2,2.1-0.1,4.4,2.2,5.8c-0.1,0.1-0.1,0.2-0.2,0.3h-1.6c-2.3,0-4.6-0.1-6.8,0c-1,0-1.5-0.4-1.7-1.3c-0.3-1.3-0.5-2.6-0.6-3.9
			c-0.3-4.2-0.9-4.8-5-4.8L165.1,160.8L165.1,160.8z M179.8,168.9c-0.1-1.2-0.2-2.3-0.4-3.3c-0.2-1.5-0.3-3.1-0.7-4.6
			c-0.3-1.3-1.1-2.4-2.5-2.9c-0.4-0.1-0.9-0.6-0.9-0.9c0-0.4,0.4-0.9,0.8-1.1c2.4-1.2,3.4-3.2,3.4-5.7c0.1-2.5-0.9-4.6-3.2-5.6
			c-1.7-0.7-3.7-1.2-5.5-1.3c-3.9-0.2-7.8-0.1-11.8-0.1c-0.3,0-0.7,0.1-1.1,0.1v25.3c1.6,0,3,0,4.5,0c0.2,0,0.6-0.5,0.6-0.8
			c0.1-1.5,0-3,0-4.4c0-1.5,0-3,0-4.5c0.3-0.1,0.4-0.2,0.5-0.2c1.8,0,3.5,0,5.3,0c3.3,0,4.8,1.4,5.3,4.6c0.2,1.5,0.3,2.9,0.5,4.4
			c0.1,0.4,0.5,0.9,0.8,0.9C176.9,168.9,178.3,168.8,179.8,168.9L179.8,168.9z"/>
		<path class="st0" d="M231.1,150.1c-1.2-0.3-1.7,0-1.9,1.1c-1,5.5-2.2,11.1-3.3,16.6c-0.1,0.8-0.4,1.1-1.2,1.1
			c-1.3-0.1-2.6,0-3.8-0.1c-0.4,0-0.9-0.4-1-0.7c-2.2-8.2-4.4-16.3-6.7-24.6h5.1c0.4,2,0.8,4.1,1.2,6.2c0.8,4.2,1.6,8.4,2.4,12.6
			c0.1,0.6,0.2,1.1,1.1,1.1c0.9,0,0.9-0.5,1-1.1c1.2-5.9,2.4-11.8,3.6-17.7c0.2-0.9,0.5-1.2,1.4-1.1c1.3,0.1,2.6,0,3.9,0
			c1.4,6.7,2.7,13.3,4,19.8c1.2,0.4,1.7,0.1,1.9-1.2c1.1-5.9,2.2-11.8,3.4-17.6c0.1-0.3,0.2-0.6,0.3-1h4.9c-0.1,0.4-0.1,0.8-0.2,1.1
			c-2.1,7.7-4.3,15.4-6.3,23.1c-0.3,1-0.7,1.3-1.6,1.2c-1-0.1-2.1-0.1-3.1,0c-0.9,0.1-1.3-0.2-1.4-1.1c-1-5.5-2.1-10.9-3.2-16.4
			C231.3,151,231.2,150.6,231.1,150.1L231.1,150.1z"/>
		<path class="st0" d="M207.2,147.2h-14.6c0,2.1,0,4.1,0.1,6.2c0,0.2,0.7,0.5,1.1,0.5c3.6,0,7.3,0.1,10.9,0c1.1,0,1.5,0.3,1.3,1.3
			c-0.1,0.7,0,1.4,0,2.2h-13.3v7.1h14.9c0,1.3,0.1,2.5,0,3.7c0,0.2-0.6,0.6-0.9,0.6c-2.2,0.1-4.4,0-6.6,0c-3.8,0-7.5,0-11.3,0
			c-1.1,0-1.4-0.2-1.4-1.4c0.1-7.6,0-15.2,0-22.8c0-0.9,0.2-1.3,1.2-1.3c5.8,0.1,11.6,0.1,17.4,0c1,0,1.3,0.4,1.2,1.3
			C207.1,145.5,207.2,146.3,207.2,147.2z"/>
		<path class="st0" d="M151.2,160.2c-0.6,3.7-2.3,6.4-5.5,7.9c-7.4,3.4-17.8,0.2-18.5-11c-0.3-4.6,1-8.7,4.8-11.7
			c4.6-3.7,12.1-3.3,16.4,0.6c1.5,1.4,2.5,3,2.8,5.2c-1.7,0-3.3,0-4.9,0c-0.2,0-0.5-0.4-0.6-0.6c-1.4-4.2-8.8-5.1-11.7-0.8
			c-2.3,3.4-2.3,9.2,0,12.5c1.6,2.2,3.8,3,6.4,2.8c2.7-0.3,4.5-1.6,5.4-4.3c0.1-0.3,0.4-0.7,0.6-0.7
			C148,160.1,149.6,160.2,151.2,160.2L151.2,160.2z"/>
		<path class="st0" d="M179.8,168.8c-1.5,0-2.8,0.1-4.2,0c-0.3,0-0.8-0.6-0.8-0.9c-0.2-1.5-0.3-2.9-0.5-4.4c-0.4-3.3-2-4.6-5.3-4.6
			c-1.8,0-3.5,0-5.3,0c-0.1,0-0.2,0.1-0.5,0.2c0,1.5,0,3,0,4.5c0,1.5,0,3,0,4.4c0,0.3-0.4,0.8-0.6,0.8c-1.5,0.1-2.9,0-4.5,0v-25.3
			c0.4,0,0.7-0.1,1.1-0.1c3.9,0,7.8-0.1,11.8,0.1c1.9,0.1,3.8,0.5,5.5,1.3c2.3,1,3.2,3.1,3.2,5.6c-0.1,2.6-1.1,4.6-3.4,5.7
			c-0.4,0.2-0.8,0.7-0.8,1.1c0,0.3,0.5,0.8,0.9,0.9c1.4,0.5,2.2,1.6,2.5,2.9c0.4,1.5,0.5,3.1,0.7,4.6
			C179.5,166.6,179.6,167.6,179.8,168.8L179.8,168.8z M163.2,155.2c2.5,0,4.9,0,7.2,0c2.2-0.1,3.6-1.4,3.8-3.5
			c0.2-2.3-0.9-4.1-3.1-4.3c-2.6-0.2-5.2-0.1-7.9-0.1L163.2,155.2L163.2,155.2z"/>
		<path class="st0" d="M163.2,155.2v-7.9c2.7,0,5.3-0.2,7.9,0.1c2.3,0.2,3.4,2,3.1,4.3c-0.2,2.1-1.6,3.5-3.8,3.5
			C168.1,155.3,165.7,155.2,163.2,155.2L163.2,155.2z M165.1,153.3c1.9,0,3.8,0.1,5.6,0c1.1,0,1.6-0.8,1.6-1.8
			c0.1-1.1-0.4-2-1.4-2.1c-1.9-0.1-3.9,0-5.8,0L165.1,153.3L165.1,153.3z"/>
	</g>
</g>
</svg>
