<svg xmlns="http://www.w3.org/2000/svg" viewBox="0 0 24 24" fill="currentColor"><path d="M12 0C5.4 0 0 5.4 0 12s5.4 12 12 12 12-5.4 12-12S18.66 0 12 0zm5.521 17.34c-.24.359-.66.48-1.021.24-2.82-1.74-6.36-2.101-10.561-2.101-.18 0-.36.01-.539.03-1.2.12-2.199.96-2.439 2.16-.24 1.44.72 2.661 2.001 2.921.66.15 1.32.24 1.98.24 1.32 0 2.64-.27 3.96-.81.36-.18.48-.66.24-1.02zm1.44-3.24c-.3.42-.84.54-1.26.24-3.24-1.98-8.16-2.58-11.94-2.58-.36 0-.72.02-1.08.06-1.38.12-2.519 1.14-2.639 2.58-.12 1.53.9 2.841 2.34 2.941.42.06.84.09 1.26.09 1.62 0 3.24-.33 4.86-.99.42-.18.6-.6.42-1.02zm.12-3.36C15.24 8.4 8.82 8.16 5.16 9.06c-.42.12-.72.48-.54.9.12.42.48.54.9.42 3.24-.9 9.24-.66 12.24 1.02.36.24.84.12 1.02-.3.12-.42-.12-.84-.48-1.02z"/></svg>
